<?xml version="1.0" encoding="UTF-8"?>
<svg xmlns="http://www.w3.org/2000/svg" xmlns:xlink="http://www.w3.org/1999/xlink" width="14px" height="16px" viewBox="0 0 14 16" version="1.1">
<g id="surface1">
<path style="fill:#526278" d="M 13.707031 8.707031 L 8.707031 13.707031 C 8.511719 13.902344 8.257812 14 8 14 C 7.742188 14 7.488281 13.902344 7.292969 13.707031 C 6.902344 13.316406 6.902344 12.683594 7.292969 12.292969 L 10.585938 9 L 1 9 C 0.449219 9 0 8.554688 0 8 C 0 7.445312 0.449219 7 1 7 L 10.585938 7 L 7.292969 3.707031 C 6.902344 3.316406 6.902344 2.683594 7.292969 2.292969 C 7.683594 1.902344 8.316406 1.902344 8.707031 2.292969 L 13.707031 7.292969 C 14.097656 7.683594 14.097656 8.316406 13.707031 8.707031 Z M 13.707031 8.707031 "/>
</g>
</svg>
