<?xml version="1.0" encoding="UTF-8"?>
<svg xmlns="http://www.w3.org/2000/svg" xmlns:xlink="http://www.w3.org/1999/xlink" width="11px" height="13px" viewBox="0 0 11 12" version="1.1">
<g id="surface1">
<path style=" stroke:none;fill-rule:nonzero;fill:#9a9a9a;fill-opacity:1;" d="M 3.929688 0.75 L 3.929688 1.5 L 7.070312 1.5 L 7.070312 0.75 C 7.070312 0.335938 7.421875 0 7.855469 0 C 8.292969 0 8.644531 0.335938 8.644531 0.75 L 8.644531 1.5 L 9.820312 1.5 C 10.472656 1.5 11 2.003906 11 2.625 L 11 3.75 L 0 3.75 L 0 2.625 C 0 2.003906 0.527344 1.5 1.179688 1.5 L 2.355469 1.5 L 2.355469 0.75 C 2.355469 0.335938 2.707031 0 3.144531 0 C 3.578125 0 3.929688 0.335938 3.929688 0.75 Z M 0 4.5 L 11 4.5 L 11 10.875 C 11 11.496094 10.472656 12 9.820312 12 L 1.179688 12 C 0.527344 12 0 11.496094 0 10.875 Z M 1.570312 7.125 C 1.570312 7.332031 1.746094 7.5 1.964844 7.5 L 2.75 7.5 C 2.964844 7.5 3.144531 7.332031 3.144531 7.125 L 3.144531 6.375 C 3.144531 6.167969 2.964844 6 2.75 6 L 1.964844 6 C 1.746094 6 1.570312 6.167969 1.570312 6.375 Z M 4.714844 7.125 C 4.714844 7.332031 4.890625 7.5 5.105469 7.5 L 5.894531 7.5 C 6.109375 7.5 6.285156 7.332031 6.285156 7.125 L 6.285156 6.375 C 6.285156 6.167969 6.109375 6 5.894531 6 L 5.105469 6 C 4.890625 6 4.714844 6.167969 4.714844 6.375 Z M 8.25 6 C 8.035156 6 7.855469 6.167969 7.855469 6.375 L 7.855469 7.125 C 7.855469 7.332031 8.035156 7.5 8.25 7.5 L 9.035156 7.5 C 9.25 7.5 9.429688 7.332031 9.429688 7.125 L 9.429688 6.375 C 9.429688 6.167969 9.25 6 9.035156 6 Z M 1.570312 10.125 C 1.570312 10.332031 1.746094 10.5 1.964844 10.5 L 2.75 10.5 C 2.964844 10.5 3.144531 10.332031 3.144531 10.125 L 3.144531 9.375 C 3.144531 9.167969 2.964844 9 2.75 9 L 1.964844 9 C 1.746094 9 1.570312 9.167969 1.570312 9.375 Z M 5.105469 9 C 4.890625 9 4.714844 9.167969 4.714844 9.375 L 4.714844 10.125 C 4.714844 10.332031 4.890625 10.5 5.105469 10.5 L 5.894531 10.5 C 6.109375 10.5 6.285156 10.332031 6.285156 10.125 L 6.285156 9.375 C 6.285156 9.167969 6.109375 9 5.894531 9 Z M 7.855469 10.125 C 7.855469 10.332031 8.035156 10.5 8.25 10.5 L 9.035156 10.5 C 9.25 10.5 9.429688 10.332031 9.429688 10.125 L 9.429688 9.375 C 9.429688 9.167969 9.25 9 9.035156 9 L 8.25 9 C 8.035156 9 7.855469 9.167969 7.855469 9.375 Z M 7.855469 10.125 "/>
</g>
</svg>
