<?xml version="1.0" encoding="UTF-8"?>
<svg xmlns="http://www.w3.org/2000/svg" xmlns:xlink="http://www.w3.org/1999/xlink" width="30px" height="30px" viewBox="0 0 30 30" version="1.1">
<g>
<path fill="#edf1f4" d="M 0.226562 3.214844 C 0.613281 2.398438 1.4375 1.875 2.34375 1.875 L 27.65625 1.875 C 28.5625 1.875 29.382812 2.398438 29.773438 3.214844 C 30.164062 4.035156 30.042969 5.003906 29.421875 5.703125 L 18.75 18.804688 L 18.75 26.25 C 18.75 26.960938 18.351562 27.609375 17.710938 27.925781 C 17.078125 28.242188 16.320312 28.179688 15.75 27.75 L 12 24.9375 C 11.523438 24.585938 11.25 24.03125 11.25 23.4375 L 11.25 18.804688 L 0.53125 5.703125 C -0.0429688 5.003906 -0.160156 4.035156 0.226562 3.214844 Z M 0.226562 3.214844 "/>
</g>
</svg>
