<?xml version="1.0" encoding="UTF-8"?>
<svg xmlns="http://www.w3.org/2000/svg" xmlns:xlink="http://www.w3.org/1999/xlink" width="50px" height="50px" viewBox="0 0 50 50" version="1.1">
<path fill="#fff" d="M 8.332031 16.667969 L 16.667969 16.667969 L 16.667969 8.332031 L 8.332031 8.332031 Z M 20.832031 41.667969 L 29.167969 41.667969 L 29.167969 33.332031 L 20.832031 33.332031 Z M 8.332031 41.667969 L 16.667969 41.667969 L 16.667969 33.332031 L 8.332031 33.332031 Z M 8.332031 29.167969 L 16.667969 29.167969 L 16.667969 20.832031 L 8.332031 20.832031 Z M 20.832031 29.167969 L 29.167969 29.167969 L 29.167969 20.832031 L 20.832031 20.832031 Z M 33.332031 8.332031 L 33.332031 16.667969 L 41.667969 16.667969 L 41.667969 8.332031 Z M 20.832031 16.667969 L 29.167969 16.667969 L 29.167969 8.332031 L 20.832031 8.332031 Z M 33.332031 29.167969 L 41.667969 29.167969 L 41.667969 20.832031 L 33.332031 20.832031 Z M 33.332031 41.667969 L 41.667969 41.667969 L 41.667969 33.332031 L 33.332031 33.332031 Z M 33.332031 41.667969 "/>
</svg>