<?xml version="1.0" encoding="UTF-8"?>
<svg xmlns="http://www.w3.org/2000/svg" xmlns:xlink="http://www.w3.org/1999/xlink" width="11px" height="13px" viewBox="0 0 11 12" version="1.1">
<g id="surface1">
<path style=" stroke:none;fill-rule:nonzero;fill:#fff;fill-opacity:1;" d="M 5.5 6 C 7.234375 6 8.644531 4.65625 8.644531 3 C 8.644531 1.34375 7.234375 0 5.5 0 C 3.765625 0 2.355469 1.34375 2.355469 3 C 2.355469 4.65625 3.765625 6 5.5 6 Z M 6.746094 7.125 L 4.253906 7.125 C 1.90625 7.125 0 8.945312 0 11.1875 C 0 11.636719 0.382812 12 0.851562 12 L 10.148438 12 C 10.621094 12 11 11.636719 11 11.1875 C 11 8.945312 9.09375 7.125 6.746094 7.125 Z M 6.746094 7.125 "/>
</g>
</svg>
